<svg xmlns="http://www.w3.org/2000/svg" xmlns:xlink="http://www.w3.org/1999/xlink" contentStyleType="text/css" height="662px" preserveAspectRatio="none" style="width:393px;height:662px;background:#FFFFFF;" version="1.1" viewBox="0 0 393 662" width="393px" zoomAndPan="magnify"><defs/><g><line style="stroke:#181818;stroke-width:0.5;stroke-dasharray:5.0,5.0;" x1="33" x2="33" y1="83.6211" y2="579.6953"/><line style="stroke:#181818;stroke-width:0.5;stroke-dasharray:5.0,5.0;" x1="114.1909" x2="114.1909" y1="83.6211" y2="579.6953"/><line style="stroke:#181818;stroke-width:0.5;stroke-dasharray:5.0,5.0;" x1="280.5552" x2="280.5552" y1="83.6211" y2="579.6953"/><text fill="#000000" font-family="sans-serif" font-size="14" lengthAdjust="spacing" textLength="27.2344" x="17" y="80.1074">user</text><ellipse cx="33.6172" cy="13.5" fill="#E2E2F0" rx="8" ry="8" style="stroke:#181818;stroke-width:0.5;"/><path d="M33.6172,21.5 L33.6172,48.5 M20.6172,29.5 L46.6172,29.5 M33.6172,48.5 L20.6172,63.5 M33.6172,48.5 L46.6172,63.5 " fill="none" style="stroke:#181818;stroke-width:0.5;"/><text fill="#000000" font-family="sans-serif" font-size="14" lengthAdjust="spacing" textLength="27.2344" x="17" y="593.8027">user</text><ellipse cx="33.6172" cy="605.8164" fill="#E2E2F0" rx="8" ry="8" style="stroke:#181818;stroke-width:0.5;"/><path d="M33.6172,613.8164 L33.6172,640.8164 M20.6172,621.8164 L46.6172,621.8164 M33.6172,640.8164 L20.6172,655.8164 M33.6172,640.8164 L46.6172,655.8164 " fill="none" style="stroke:#181818;stroke-width:0.5;"/><rect fill="#E2E2F0" height="32.6211" rx="2.5" ry="2.5" style="stroke:#181818;stroke-width:0.5;" width="49.0342" x="90.1909" y="50"/><text fill="#000000" font-family="sans-serif" font-size="14" lengthAdjust="spacing" textLength="35.0342" x="97.1909" y="72.1074">auth0</text><rect fill="#E2E2F0" height="32.6211" rx="2.5" ry="2.5" style="stroke:#181818;stroke-width:0.5;" width="49.0342" x="90.1909" y="578.6953"/><text fill="#000000" font-family="sans-serif" font-size="14" lengthAdjust="spacing" textLength="35.0342" x="97.1909" y="600.8027">auth0</text><rect fill="#E2E2F0" height="32.6211" rx="2.5" ry="2.5" style="stroke:#181818;stroke-width:0.5;" width="47.4688" x="257.5552" y="50"/><text fill="#000000" font-family="sans-serif" font-size="14" lengthAdjust="spacing" textLength="33.4688" x="264.5552" y="72.1074">nginx</text><rect fill="#E2E2F0" height="32.6211" rx="2.5" ry="2.5" style="stroke:#181818;stroke-width:0.5;" width="47.4688" x="257.5552" y="578.6953"/><text fill="#000000" font-family="sans-serif" font-size="14" lengthAdjust="spacing" textLength="33.4688" x="264.5552" y="600.8027">nginx</text><polygon fill="#181818" points="125.708,112.9121,115.708,116.9121,125.708,120.9121,121.708,116.9121" style="stroke:#181818;stroke-width:1.0;"/><line style="stroke:#181818;stroke-width:1.0;" x1="119.708" x2="280.2896" y1="116.9121" y2="116.9121"/><text fill="#000000" font-family="sans-serif" font-size="13" lengthAdjust="spacing" textLength="96.1226" x="131.708" y="111.6494">get configuration</text><polygon fill="#181818" points="269.2896,144.2031,279.2896,148.2031,269.2896,152.2031,273.2896,148.2031" style="stroke:#181818;stroke-width:1.0;"/><line style="stroke:#181818;stroke-width:1.0;stroke-dasharray:2.0,2.0;" x1="114.708" x2="275.2896" y1="148.2031" y2="148.2031"/><text fill="#000000" font-family="sans-serif" font-size="13" lengthAdjust="spacing" textLength="74.439" x="121.708" y="142.9404">configuration</text><polygon fill="#181818" points="269.2896,175.4941,279.2896,179.4941,269.2896,183.4941,273.2896,179.4941" style="stroke:#181818;stroke-width:1.0;"/><line style="stroke:#181818;stroke-width:1.0;" x1="33.6172" x2="275.2896" y1="179.4941" y2="179.4941"/><text fill="#000000" font-family="sans-serif" font-size="13" lengthAdjust="spacing" textLength="82.3926" x="40.6172" y="174.2314">navigate &lt;url&gt;</text><path d="M176,192.4941 L176,219.4941 L386,219.4941 L386,202.4941 L376,192.4941 L176,192.4941 " fill="#FEFFDD" style="stroke:#181818;stroke-width:0.5;"/><path d="M376,192.4941 L376,202.4941 L386,202.4941 L376,192.4941 " fill="#FEFFDD" style="stroke:#181818;stroke-width:0.5;"/><text fill="#000000" font-family="sans-serif" font-size="13" lengthAdjust="spacing" textLength="189.3379" x="182" y="211.5225">user session is not authenticated</text><polygon fill="#181818" points="44.6172,244.0762,34.6172,248.0762,44.6172,252.0762,40.6172,248.0762" style="stroke:#181818;stroke-width:1.0;"/><line style="stroke:#181818;stroke-width:1.0;stroke-dasharray:2.0,2.0;" x1="38.6172" x2="280.2896" y1="248.0762" y2="248.0762"/><text fill="#000000" font-family="sans-serif" font-size="13" lengthAdjust="spacing" textLength="223.6724" x="50.6172" y="242.8135">redirect to auth0/authorise?state=&lt;url&gt;</text><polygon fill="#181818" points="102.708,275.3672,112.708,279.3672,102.708,283.3672,106.708,279.3672" style="stroke:#181818;stroke-width:1.0;"/><line style="stroke:#181818;stroke-width:1.0;" x1="33.6172" x2="108.708" y1="279.3672" y2="279.3672"/><text fill="#000000" font-family="sans-serif" font-size="13" lengthAdjust="spacing" textLength="57.0908" x="40.6172" y="274.1045">/authorise</text><path d="M5,292.3672 L5,336.3672 L225,336.3672 L225,302.3672 L215,292.3672 L5,292.3672 " fill="#FEFFDD" style="stroke:#181818;stroke-width:0.5;"/><path d="M215,292.3672 L215,302.3672 L225,302.3672 L215,292.3672 " fill="#FEFFDD" style="stroke:#181818;stroke-width:0.5;"/><text fill="#000000" font-family="sans-serif" font-size="13" lengthAdjust="spacing" textLength="199.4561" x="11" y="311.3955">negotiate session creds with auth0</text><text fill="#000000" font-family="sans-serif" font-size="13" lengthAdjust="spacing" textLength="154.667" x="11" y="328.6865">and navigate back to nginx</text><polygon fill="#181818" points="44.6172,343.9492,34.6172,347.9492,44.6172,351.9492,40.6172,347.9492" style="stroke:#181818;stroke-width:1.0;"/><polygon fill="#181818" points="102.708,343.9492,112.708,347.9492,102.708,351.9492,106.708,347.9492" style="stroke:#181818;stroke-width:1.0;"/><line style="stroke:#181818;stroke-width:1.0;stroke-dasharray:2.0,2.0;" x1="38.6172" x2="108.708" y1="347.9492" y2="347.9492"/><polygon fill="#181818" points="269.2896,375.2402,279.2896,379.2402,269.2896,383.2402,273.2896,379.2402" style="stroke:#181818;stroke-width:1.0;"/><line style="stroke:#181818;stroke-width:1.0;" x1="33.6172" x2="275.2896" y1="379.2402" y2="379.2402"/><text fill="#000000" font-family="sans-serif" font-size="13" lengthAdjust="spacing" textLength="123.2144" x="40.6172" y="373.9775">/callback?state=&lt;url&gt;</text><path d="M223,392.2402 L223,419.2402 L337,419.2402 L337,402.2402 L327,392.2402 L223,392.2402 " fill="#FEFFDD" style="stroke:#181818;stroke-width:0.5;"/><path d="M327,392.2402 L327,402.2402 L337,402.2402 L327,392.2402 " fill="#FEFFDD" style="stroke:#181818;stroke-width:0.5;"/><text fill="#000000" font-family="sans-serif" font-size="13" lengthAdjust="spacing" textLength="93.9326" x="229" y="411.2686">set user session</text><polygon fill="#181818" points="125.708,426.5313,115.708,430.5313,125.708,434.5313,121.708,430.5313" style="stroke:#181818;stroke-width:1.0;"/><polygon fill="#181818" points="269.2896,426.5313,279.2896,430.5313,269.2896,434.5313,273.2896,430.5313" style="stroke:#181818;stroke-width:1.0;"/><line style="stroke:#181818;stroke-width:1.0;stroke-dasharray:2.0,2.0;" x1="119.708" x2="275.2896" y1="430.5313" y2="430.5313"/><polygon fill="#181818" points="44.6172,457.8223,34.6172,461.8223,44.6172,465.8223,40.6172,461.8223" style="stroke:#181818;stroke-width:1.0;"/><line style="stroke:#181818;stroke-width:1.0;stroke-dasharray:2.0,2.0;" x1="38.6172" x2="280.2896" y1="461.8223" y2="461.8223"/><text fill="#000000" font-family="sans-serif" font-size="13" lengthAdjust="spacing" textLength="91.0444" x="50.6172" y="456.5596">redirect to &lt;url&gt;</text><polygon fill="#181818" points="269.2896,489.1133,279.2896,493.1133,269.2896,497.1133,273.2896,493.1133" style="stroke:#181818;stroke-width:1.0;"/><line style="stroke:#181818;stroke-width:1.0;" x1="33.6172" x2="275.2896" y1="493.1133" y2="493.1133"/><text fill="#000000" font-family="sans-serif" font-size="13" lengthAdjust="spacing" textLength="82.3926" x="40.6172" y="487.8506">navigate &lt;url&gt;</text><path d="M186,506.1133 L186,550.1133 L374,550.1133 L374,516.1133 L364,506.1133 L186,506.1133 " fill="#FEFFDD" style="stroke:#181818;stroke-width:0.5;"/><path d="M364,506.1133 L364,516.1133 L374,516.1133 L364,506.1133 " fill="#FEFFDD" style="stroke:#181818;stroke-width:0.5;"/><text fill="#000000" font-family="sans-serif" font-size="13" lengthAdjust="spacing" textLength="167.6543" x="192" y="525.1416">user session is authenticated</text><text fill="#000000" font-family="sans-serif" font-size="13" lengthAdjust="spacing" textLength="133.688" x="192" y="542.4326">set provisional headers</text><polygon fill="#181818" points="379.3379,557.6953,389.3379,561.6953,379.3379,565.6953,383.3379,561.6953" style="stroke:#181818;stroke-width:1.0;"/><line style="stroke:#181818;stroke-width:1.0;" x1="281.2896" x2="385.3379" y1="561.6953" y2="561.6953"/><!--SRC=[dP51ReGm34NtEOKlWAPhDALdSOCRh2879ORs-7MICWFJgejkGXH_yv-_qMjCi6PARi6ax7b1KS1LfwVJYmIMJ-Vg1xgXANe8fE2Zl75O4of7SRK0dKcgjdye5oku5mKt3gW4rpNDWvDerxYPfFb1HODCELipS0PJL6yIGxF6qP6CvPLsDljvQUeXqSY9l8B6XdifPqoSwIMhzJutqntfUwIxoXruMY80GY4g5-8TofjFXW_MwIR2WhHFzeh-lI2qYMwqpVRQxSQFoLmypdFfFR7-ab2s5HnJEbYqH0uUVqLq3kE_-pdlfj4jAMvS13Z3H3XIoZ-sDa3llW00]--></g></svg>